<svg width="192" height="63" viewBox="0 0 192 63" fill="none" xmlns="http://www.w3.org/2000/svg">
<path d="M75.0215 42.7066C74.8026 42.7851 74.7697 42.8979 74.8535 43.3284C74.8906 43.5353 75.6729 47.8567 76.589 52.9339C77.5013 58.0106 78.2693 62.2253 78.2916 62.2981C78.3709 62.5412 78.6773 62.6368 78.8715 62.4735C78.9319 62.4225 79.71 60.8551 81.123 57.9442C82.3101 55.4924 83.2889 53.4823 83.3018 53.4722C83.3146 53.4621 85.497 52.9836 88.1522 52.4107C92.0138 51.5755 93.0026 51.3491 93.0769 51.2803C93.1287 51.236 93.1913 51.1346 93.212 51.0593C93.2686 50.8793 93.206 50.755 93.0056 50.6489C92.8773 50.5867 85.3496 47.1902 76.6399 43.2727C75.9191 42.9479 75.2887 42.6768 75.239 42.6707C75.1893 42.6647 75.0944 42.6804 75.0215 42.7066Z" fill="white"/>
<path d="M19.2913 38.7807C15.1346 38.7807 11.6174 37.9961 8.73971 36.4271C5.89753 34.858 3.73036 32.6292 2.23822 29.7408C0.746072 26.8523 0 23.4289 0 19.4706C0 15.4766 0.763836 12.0354 2.29151 9.14689C3.81918 6.22274 6.02187 3.97613 8.89958 2.40708C11.7773 0.802359 15.2234 0 19.238 0C21.2275 0 23.2171 0.249623 25.2066 0.748868C27.2316 1.21245 29.1324 2.01481 30.9087 3.15594C31.6903 3.61953 32.1344 4.24359 32.241 5.02811C32.3831 5.77698 32.2765 6.49019 31.9212 7.16774C31.566 7.84528 31.0331 8.3267 30.3225 8.61198C29.612 8.8616 28.8304 8.73679 27.9777 8.23755C26.6277 7.45302 25.2599 6.88245 23.8743 6.52585C22.4888 6.16924 20.9433 5.99094 19.238 5.99094C15.259 5.99094 12.2391 7.1499 10.1786 9.46783C8.15351 11.7858 7.14098 15.12 7.14098 19.4706C7.14098 23.8568 8.18903 27.191 10.2851 29.4733C12.3813 31.7556 15.4899 32.8967 19.611 32.8967C20.7834 32.8967 21.9736 32.8075 23.1815 32.6292C24.425 32.4153 25.6507 32.1122 26.8586 31.7199V22.9475H20.9966C19.1492 22.9475 18.2255 22.0916 18.2255 20.3799C18.2255 18.7039 19.1492 17.8659 20.9966 17.8659H29.7896C31.637 17.8659 32.5607 18.793 32.5607 20.6474V33.6456C32.5607 35.2859 31.9212 36.3379 30.6423 36.8015C29.0791 37.3721 27.2849 37.8535 25.2599 38.2458C23.2348 38.6024 21.2453 38.7807 19.2913 38.7807Z" fill="white"/>
<path d="M52.6689 38.7807C49.7201 38.7807 47.1799 38.2279 45.0483 37.1225C42.9167 36.017 41.2646 34.4479 40.0922 32.4153C38.9554 30.3826 38.3869 27.9756 38.3869 25.1941C38.3869 22.4839 38.9376 20.1125 40.0389 18.0798C41.1758 16.0472 42.7213 14.4603 44.6753 13.3192C46.6648 12.1424 48.9208 11.554 51.4432 11.554C55.138 11.554 58.0513 12.7308 60.1829 15.0843C62.3501 17.4379 63.4336 20.6474 63.4336 24.7126C63.4336 26.0321 62.581 26.6918 60.8757 26.6918H44.7818C45.2792 31.3633 47.9438 33.6991 52.7755 33.6991C53.6992 33.6991 54.7295 33.5921 55.8663 33.3781C57.0387 33.1285 58.1401 32.7184 59.1704 32.1478C60.0941 31.6129 60.8757 31.4525 61.5152 31.6664C62.1547 31.8447 62.5988 32.2191 62.8474 32.7897C63.1317 33.3603 63.1672 34.0022 62.954 34.7154C62.7764 35.3929 62.279 35.9813 61.4619 36.4806C60.2184 37.2651 58.7796 37.8535 57.1453 38.2458C55.5466 38.6024 54.0544 38.7807 52.6689 38.7807ZM51.7096 16.1007C49.7556 16.1007 48.1747 16.7069 46.9668 17.9193C45.7588 19.1318 45.0305 20.7722 44.7818 22.8405H57.8914C57.7493 20.6652 57.1453 19.007 56.0795 17.8659C55.0492 16.6891 53.5926 16.1007 51.7096 16.1007Z" fill="white"/>
<path d="M72.0131 38.6737C69.8104 38.6737 68.709 37.5325 68.709 35.2503V15.0308C68.709 12.7842 69.7926 11.6609 71.9598 11.6609C74.1269 11.6609 75.2105 12.7842 75.2105 15.0308V16.1542C76.0987 14.6564 77.2889 13.5153 78.781 12.7308C80.3087 11.9462 82.014 11.554 83.8969 11.554C90.0431 11.554 93.1162 15.1378 93.1162 22.3056V35.2503C93.1162 37.5325 92.0149 38.6737 89.8122 38.6737C87.574 38.6737 86.4549 37.5325 86.4549 35.2503V22.6265C86.4549 20.5939 86.0641 19.114 85.2825 18.1868C84.5364 17.2596 83.364 16.796 81.7653 16.796C79.8113 16.796 78.2481 17.4201 77.0757 18.6682C75.9388 19.8807 75.3704 21.5032 75.3704 23.5358V35.2503C75.3704 37.5325 74.2513 38.6737 72.0131 38.6737Z" fill="white"/>
<path d="M112.725 38.7807C109.776 38.7807 107.236 38.2279 105.105 37.1225C102.973 36.017 101.321 34.4479 100.149 32.4153C99.0117 30.3826 98.4433 27.9756 98.4433 25.1941C98.4433 22.4839 98.9939 20.1125 100.095 18.0798C101.232 16.0472 102.778 14.4603 104.732 13.3192C106.721 12.1424 108.977 11.554 111.5 11.554C115.194 11.554 118.108 12.7308 120.239 15.0843C122.406 17.4379 123.49 20.6474 123.49 24.7126C123.49 26.0321 122.637 26.6918 120.932 26.6918H104.838C105.336 31.3633 108 33.6991 112.832 33.6991C113.756 33.6991 114.786 33.5921 115.923 33.3781C117.095 33.1285 118.196 32.7184 119.227 32.1478C120.15 31.6129 120.932 31.4525 121.572 31.6664C122.211 31.8447 122.655 32.2191 122.904 32.7897C123.188 33.3603 123.224 34.0022 123.01 34.7154C122.833 35.3929 122.335 35.9813 121.518 36.4806C120.275 37.2651 118.836 37.8535 117.202 38.2458C115.603 38.6024 114.111 38.7807 112.725 38.7807ZM111.766 16.1007C109.812 16.1007 108.231 16.7069 107.023 17.9193C105.815 19.1318 105.087 20.7722 104.838 22.8405H117.948C117.806 20.6652 117.202 19.007 116.136 17.8659C115.106 16.6891 113.649 16.1007 111.766 16.1007Z" fill="white"/>
<path d="M132.176 38.6737C129.902 38.6737 128.765 37.5325 128.765 35.2503V15.0308C128.765 12.7842 129.849 11.6609 132.016 11.6609C134.183 11.6609 135.267 12.7842 135.267 15.0308V16.6891C136.546 13.6223 139.281 11.9106 143.474 11.554C145.001 11.3757 145.854 12.2493 146.032 14.175C146.209 16.065 145.286 17.117 143.26 17.3309L142.088 17.4379C137.718 17.8658 135.533 20.1125 135.533 24.1777V35.2503C135.533 37.5325 134.414 38.6737 132.176 38.6737Z" fill="white"/>
<path d="M157.954 38.7807C156.071 38.7807 154.383 38.4241 152.891 37.7108C151.435 36.962 150.28 35.9635 149.427 34.7154C148.61 33.4673 148.202 32.0587 148.202 30.4896C148.202 28.564 148.699 27.0484 149.694 25.9429C150.688 24.8018 152.305 23.9816 154.543 23.4824C156.781 22.9831 159.783 22.7335 163.549 22.7335H165.415V21.6102C165.415 19.8272 165.024 18.5434 164.242 17.7589C163.46 16.9743 162.146 16.5821 160.299 16.5821C159.268 16.5821 158.149 16.7069 156.941 16.9565C155.769 17.2061 154.525 17.6341 153.211 18.2403C152.358 18.6325 151.648 18.686 151.079 18.4008C150.511 18.0798 150.12 17.5984 149.907 16.9565C149.729 16.279 149.765 15.6014 150.013 14.9239C150.298 14.2463 150.848 13.7471 151.665 13.4261C153.3 12.7486 154.863 12.2672 156.355 11.9819C157.883 11.6966 159.268 11.554 160.512 11.554C164.313 11.554 167.138 12.4455 168.985 14.2285C170.832 15.9759 171.756 18.7039 171.756 22.4125V35.2503C171.756 37.5325 170.726 38.6737 168.665 38.6737C166.569 38.6737 165.521 37.5325 165.521 35.2503V34.0735C164.917 35.5356 163.958 36.6945 162.643 37.5504C161.329 38.3706 159.766 38.7807 157.954 38.7807ZM159.339 34.1805C161.08 34.1805 162.519 33.5742 163.656 32.3618C164.828 31.1493 165.415 29.6159 165.415 27.7616V26.5848H163.603C160.263 26.5848 157.936 26.8523 156.622 27.3872C155.343 27.8864 154.703 28.8136 154.703 30.1687C154.703 31.3455 155.112 32.3083 155.929 33.0572C156.746 33.806 157.883 34.1805 159.339 34.1805Z" fill="white"/>
<path d="M187.417 38.7807C181.484 38.7807 178.517 35.4464 178.517 28.7779V3.47689C178.517 1.23028 179.619 0.10698 181.821 0.10698C184.06 0.10698 185.179 1.23028 185.179 3.47689V28.457C185.179 31.6664 186.511 33.2711 189.176 33.2711C189.46 33.2711 189.726 33.2711 189.975 33.2711C190.224 33.2355 190.472 33.1998 190.721 33.1642C191.218 33.0928 191.556 33.2355 191.734 33.5921C191.911 33.913 192 34.5906 192 35.6247C192 36.5162 191.822 37.2116 191.467 37.7108C191.112 38.2101 190.526 38.5132 189.708 38.6202C188.962 38.7272 188.199 38.7807 187.417 38.7807Z" fill="white"/>
<path d="M99.7872 59.2141C98.903 59.2141 98.4608 58.7564 98.4608 57.8411V46.6081H94.4196C93.6597 46.6081 93.2798 46.2337 93.2798 45.4848C93.2798 44.7498 93.6597 44.3823 94.4196 44.3823H105.155C105.915 44.3823 106.295 44.7498 106.295 45.4848C106.295 46.2337 105.915 46.6081 105.155 46.6081H101.114V57.8411C101.114 58.7564 100.671 59.2141 99.7872 59.2141Z" fill="white"/>
<path d="M110.936 59.2557C109.789 59.2557 108.802 59.0407 107.973 58.6108C107.144 58.1809 106.501 57.5707 106.045 56.7802C105.603 55.9898 105.382 55.0537 105.382 53.972C105.382 52.918 105.596 51.9958 106.025 51.2053C106.467 50.4149 107.068 49.7977 107.828 49.354C108.601 48.8963 109.479 48.6675 110.46 48.6675C111.896 48.6675 113.029 49.1251 113.858 50.0404C114.701 50.9557 115.122 52.2038 115.122 53.7848C115.122 54.2979 114.791 54.5544 114.128 54.5544H107.869C108.062 56.3711 109.099 57.2795 110.978 57.2795C111.337 57.2795 111.738 57.2379 112.18 57.1547C112.636 57.0576 113.064 56.8981 113.465 56.6762C113.824 56.4682 114.128 56.4058 114.376 56.489C114.625 56.5583 114.798 56.704 114.895 56.9258C115.005 57.1477 115.019 57.3974 114.936 57.6747C114.867 57.9382 114.673 58.167 114.356 58.3612C113.872 58.6663 113.313 58.8951 112.677 59.0476C112.055 59.1863 111.475 59.2557 110.936 59.2557ZM110.563 50.4357C109.803 50.4357 109.188 50.6714 108.719 51.1429C108.249 51.6144 107.966 52.2524 107.869 53.0567H112.967C112.912 52.2108 112.677 51.5659 112.263 51.1221C111.862 50.6645 111.295 50.4357 110.563 50.4357Z" fill="white"/>
<path d="M121.858 59.2557C120.794 59.2557 119.868 59.0407 119.081 58.6108C118.293 58.167 117.685 57.543 117.257 56.7386C116.829 55.9343 116.614 54.9913 116.614 53.9096C116.614 52.8279 116.829 51.8987 117.257 51.1221C117.685 50.3316 118.293 49.7284 119.081 49.3124C119.868 48.8824 120.794 48.6675 121.858 48.6675C122.314 48.6675 122.804 48.7299 123.329 48.8547C123.868 48.9795 124.372 49.1875 124.842 49.4788C125.118 49.6452 125.277 49.8601 125.319 50.1236C125.374 50.3871 125.339 50.6298 125.215 50.8517C125.104 51.0736 124.932 51.2331 124.697 51.3301C124.476 51.4272 124.22 51.3926 123.93 51.2261C123.295 50.8656 122.68 50.6853 122.086 50.6853C121.188 50.6853 120.49 50.9696 119.993 51.5382C119.509 52.0929 119.267 52.8903 119.267 53.9304C119.267 54.9566 119.509 55.7679 119.993 56.3642C120.49 56.9466 121.188 57.2379 122.086 57.2379C122.68 57.2379 123.295 57.0645 123.93 56.7178C124.22 56.5514 124.476 56.5167 124.697 56.6138C124.918 56.7109 125.077 56.8773 125.174 57.1131C125.27 57.335 125.291 57.5776 125.236 57.8411C125.18 58.0908 125.022 58.2988 124.759 58.4652C124.303 58.7425 123.82 58.9436 123.308 59.0684C122.797 59.1933 122.314 59.2557 121.858 59.2557Z" fill="white"/>
<path d="M128.234 59.2141C127.378 59.2141 126.949 58.7703 126.949 57.8827V50.0196C126.949 49.1459 127.371 48.7091 128.213 48.7091C129.056 48.7091 129.478 49.1459 129.478 50.0196V50.4565C129.823 49.874 130.286 49.4302 130.866 49.1251C131.46 48.82 132.123 48.6675 132.856 48.6675C135.246 48.6675 136.441 50.0612 136.441 52.8487V57.8827C136.441 58.7703 136.013 59.2141 135.156 59.2141C134.286 59.2141 133.85 58.7703 133.85 57.8827V52.9735C133.85 52.183 133.698 51.6075 133.394 51.2469C133.104 50.8864 132.648 50.7061 132.027 50.7061C131.267 50.7061 130.659 50.9488 130.203 51.4342C129.761 51.9057 129.54 52.5366 129.54 53.3271V57.8827C129.54 58.7703 129.105 59.2141 128.234 59.2141Z" fill="white"/>
<path d="M143.694 59.2557C142.644 59.2557 141.732 59.0407 140.958 58.6108C140.184 58.1809 139.583 57.5707 139.155 56.7802C138.727 55.9759 138.513 55.0329 138.513 53.9512C138.513 52.8695 138.727 51.9334 139.155 51.1429C139.583 50.3525 140.184 49.7423 140.958 49.3124C141.732 48.8824 142.644 48.6675 143.694 48.6675C144.744 48.6675 145.655 48.8824 146.429 49.3124C147.203 49.7423 147.804 50.3525 148.232 51.1429C148.66 51.9334 148.875 52.8695 148.875 53.9512C148.875 55.0329 148.66 55.9759 148.232 56.7802C147.804 57.5707 147.203 58.1809 146.429 58.6108C145.655 59.0407 144.744 59.2557 143.694 59.2557ZM143.694 57.2795C144.467 57.2795 145.089 57.0021 145.559 56.4474C146.029 55.8788 146.263 55.0467 146.263 53.9512C146.263 52.8417 146.029 52.0166 145.559 51.4757C145.089 50.921 144.467 50.6437 143.694 50.6437C142.92 50.6437 142.298 50.921 141.828 51.4757C141.359 52.0166 141.124 52.8417 141.124 53.9512C141.124 55.0467 141.359 55.8788 141.828 56.4474C142.298 57.0021 142.92 57.2795 143.694 57.2795Z" fill="white"/>
<path d="M154.474 59.2557C152.166 59.2557 151.013 57.959 151.013 55.3657V45.5264C151.013 44.6527 151.441 44.2159 152.298 44.2159C153.168 44.2159 153.603 44.6527 153.603 45.5264V55.2409C153.603 56.489 154.121 57.1131 155.158 57.1131C155.268 57.1131 155.372 57.1131 155.469 57.1131C155.565 57.0992 155.662 57.0853 155.759 57.0715C155.952 57.0437 156.083 57.0992 156.152 57.2379C156.222 57.3627 156.256 57.6262 156.256 58.0283C156.256 58.375 156.187 58.6455 156.049 58.8396C155.911 59.0338 155.683 59.1516 155.365 59.1933C155.075 59.2349 154.778 59.2557 154.474 59.2557Z" fill="white"/>
<path d="M162.151 59.2557C161.101 59.2557 160.189 59.0407 159.415 58.6108C158.642 58.1809 158.041 57.5707 157.613 56.7802C157.184 55.9759 156.97 55.0329 156.97 53.9512C156.97 52.8695 157.184 51.9334 157.613 51.1429C158.041 50.3525 158.642 49.7423 159.415 49.3124C160.189 48.8824 161.101 48.6675 162.151 48.6675C163.201 48.6675 164.113 48.8824 164.887 49.3124C165.66 49.7423 166.261 50.3525 166.69 51.1429C167.118 51.9334 167.332 52.8695 167.332 53.9512C167.332 55.0329 167.118 55.9759 166.69 56.7802C166.261 57.5707 165.66 58.1809 164.887 58.6108C164.113 59.0407 163.201 59.2557 162.151 59.2557ZM162.151 57.2795C162.925 57.2795 163.547 57.0021 164.016 56.4474C164.486 55.8788 164.721 55.0467 164.721 53.9512C164.721 52.8417 164.486 52.0166 164.016 51.4757C163.547 50.921 162.925 50.6437 162.151 50.6437C161.377 50.6437 160.756 50.921 160.286 51.4757C159.816 52.0166 159.581 52.8417 159.581 53.9512C159.581 55.0467 159.816 55.8788 160.286 56.4474C160.756 57.0021 161.377 57.2795 162.151 57.2795Z" fill="white"/>
<path d="M174.195 63C173.449 63 172.724 62.9307 172.019 62.792C171.329 62.6533 170.7 62.4383 170.133 62.1471C169.802 61.9807 169.602 61.7658 169.532 61.5023C169.477 61.2526 169.505 61.01 169.615 60.7742C169.726 60.5384 169.892 60.3651 170.113 60.2542C170.348 60.1571 170.596 60.1709 170.859 60.2958C171.467 60.6009 172.04 60.795 172.579 60.8782C173.132 60.9753 173.601 61.0238 173.988 61.0238C175.84 61.0238 176.765 60.1293 176.765 58.3404V56.9466C176.475 57.5152 176.026 57.9659 175.418 58.2988C174.824 58.6316 174.161 58.798 173.429 58.798C172.517 58.798 171.722 58.59 171.045 58.174C170.368 57.7441 169.843 57.1477 169.47 56.385C169.097 55.6223 168.911 54.7347 168.911 53.7224C168.911 52.71 169.097 51.8294 169.47 51.0805C169.843 50.3178 170.368 49.7284 171.045 49.3124C171.722 48.8824 172.517 48.6675 173.429 48.6675C174.161 48.6675 174.824 48.827 175.418 49.1459C176.012 49.4649 176.447 49.9017 176.724 50.4565V50.0196C176.724 49.5897 176.834 49.2638 177.055 49.0419C177.29 48.82 177.608 48.7091 178.009 48.7091C178.865 48.7091 179.294 49.1459 179.294 50.0196V58.0283C179.294 59.6786 178.858 60.9198 177.988 61.7519C177.118 62.584 175.853 63 174.195 63ZM174.133 56.8218C174.935 56.8218 175.57 56.5445 176.04 55.9898C176.51 55.435 176.745 54.6792 176.745 53.7224C176.745 52.7655 176.51 52.0166 176.04 51.4757C175.57 50.921 174.935 50.6437 174.133 50.6437C173.332 50.6437 172.696 50.921 172.227 51.4757C171.757 52.0166 171.522 52.7655 171.522 53.7224C171.522 54.6792 171.757 55.435 172.227 55.9898C172.696 56.5445 173.332 56.8218 174.133 56.8218Z" fill="white"/>
<path d="M184.548 62.9584C184.078 62.9584 183.753 62.785 183.573 62.4383C183.394 62.0916 183.401 61.6964 183.594 61.2526L184.775 58.6316L181.232 50.4357C181.038 49.978 181.038 49.5758 181.232 49.2291C181.425 48.8824 181.805 48.7091 182.371 48.7091C182.689 48.7091 182.945 48.7854 183.138 48.9379C183.332 49.0766 183.504 49.347 183.656 49.7492L186.143 55.9898L188.692 49.7284C188.844 49.3401 189.024 49.0766 189.231 48.9379C189.438 48.7854 189.715 48.7091 190.06 48.7091C190.502 48.7091 190.813 48.8824 190.993 49.2291C191.172 49.5758 191.165 49.9711 190.972 50.4149L185.936 61.9599C185.756 62.3482 185.563 62.6117 185.356 62.7504C185.149 62.8891 184.879 62.9584 184.548 62.9584Z" fill="white"/>
</svg>
