<svg width="190" height="73" viewBox="0 0 190 73" fill="none" xmlns="http://www.w3.org/2000/svg">
<path d="M19.0904 38.2334C14.977 38.2334 11.4964 37.46 8.64867 35.9131C5.83609 34.3661 3.69151 32.1688 2.2149 29.3211C0.738301 26.4734 0 23.0983 0 19.1958C0 15.2582 0.75588 11.8655 2.26764 9.01782C3.7794 6.13493 5.95914 3.92002 8.80688 2.37311C11.6546 0.791036 15.0649 0 19.0376 0C21.0064 0 22.9752 0.246101 24.944 0.738301C26.948 1.19534 28.8289 1.98638 30.5868 3.11141C31.3602 3.56846 31.7997 4.18371 31.9051 4.95716C32.0458 5.69546 31.9403 6.39861 31.5887 7.06659C31.2372 7.73458 30.7098 8.2092 30.0067 8.49046C29.3035 8.73656 28.5301 8.61351 27.6863 8.12131C26.3503 7.34785 24.9968 6.78534 23.6256 6.43376C22.2545 6.08219 20.7252 5.9064 19.0376 5.9064C15.1 5.9064 12.1116 7.04901 10.0725 9.33423C8.06857 11.6194 7.06659 14.9066 7.06659 19.1958C7.06659 23.5202 8.10373 26.8074 10.178 29.0574C12.2523 31.3075 15.3285 32.4325 19.4068 32.4325C20.567 32.4325 21.7447 32.3446 22.9401 32.1688C24.1706 31.9579 25.3835 31.659 26.5788 31.2723V22.6236H20.7779C18.9497 22.6236 18.0356 21.7799 18.0356 20.0923C18.0356 18.4399 18.9497 17.6138 20.7779 17.6138H29.4793C31.3075 17.6138 32.2216 18.5278 32.2216 20.356V33.1708C32.2216 34.788 31.5887 35.8252 30.3231 36.2822C28.7762 36.8447 27.0007 37.3193 24.9968 37.7061C22.9928 38.0576 21.024 38.2334 19.0904 38.2334Z" fill="white"/>
<path d="M52.1203 38.2334C49.2022 38.2334 46.6885 37.6885 44.579 36.5986C42.4696 35.5088 40.8348 33.9618 39.6746 31.9579C38.5496 29.9539 37.9871 27.5808 37.9871 24.8385C37.9871 22.1666 38.532 19.8287 39.6219 17.8247C40.7469 15.8207 42.2762 14.2562 44.2099 13.1312C46.1787 11.971 48.4112 11.3909 50.9073 11.3909C54.5637 11.3909 57.4466 12.5511 59.556 14.8715C61.7006 17.1919 62.7729 20.356 62.7729 24.3639C62.7729 25.6647 61.9291 26.3151 60.2416 26.3151H44.3154C44.8076 30.9207 47.4443 33.2235 52.2257 33.2235C53.1398 33.2235 54.1594 33.1181 55.2844 32.9071C56.4446 32.661 57.5345 32.2567 58.554 31.6942C59.4681 31.1668 60.2416 31.0086 60.8744 31.2196C61.5072 31.3954 61.9467 31.7645 62.1928 32.327C62.474 32.8895 62.5092 33.5224 62.2983 34.2255C62.1225 34.8935 61.6303 35.4736 60.8217 35.9658C59.5912 36.7393 58.1673 37.3193 56.5501 37.7061C54.968 38.0576 53.4914 38.2334 52.1203 38.2334ZM51.171 15.8735C49.2374 15.8735 47.6729 16.4711 46.4775 17.6665C45.2822 18.8618 44.5615 20.4791 44.3154 22.5182H57.2884C57.1477 20.3736 56.5501 18.7388 55.4953 17.6138C54.4758 16.4536 53.0343 15.8735 51.171 15.8735Z" fill="white"/>
<path d="M71.2629 38.128C69.0832 38.128 67.9933 37.0029 67.9933 34.7529V14.8188C67.9933 12.6039 69.0656 11.4964 71.2102 11.4964C73.3548 11.4964 74.4271 12.6039 74.4271 14.8188V15.9262C75.306 14.4496 76.4838 13.3246 77.9604 12.5511C79.4721 11.7777 81.1597 11.3909 83.023 11.3909C89.1052 11.3909 92.1463 14.9242 92.1463 21.9908V34.7529C92.1463 37.0029 91.0564 38.128 88.8767 38.128C86.6618 38.128 85.5543 37.0029 85.5543 34.7529V22.3072C85.5543 20.3033 85.1676 18.8442 84.3941 17.9302C83.6558 17.0161 82.4956 16.559 80.9136 16.559C78.9799 16.559 77.433 17.1743 76.2728 18.4048C75.1478 19.6001 74.5853 21.1998 74.5853 23.2037V34.7529C74.5853 37.0029 73.4778 38.128 71.2629 38.128Z" fill="white"/>
<path d="M111.551 38.2334C108.633 38.2334 106.119 37.6885 104.01 36.5986C101.9 35.5088 100.266 33.9618 99.1054 31.9579C97.9803 29.9539 97.4178 27.5808 97.4178 24.8385C97.4178 22.1666 97.9628 19.8287 99.0526 17.8247C100.178 15.8207 101.707 14.2562 103.641 13.1312C105.609 11.971 107.842 11.3909 110.338 11.3909C113.994 11.3909 116.877 12.5511 118.987 14.8715C121.131 17.1919 122.204 20.356 122.204 24.3639C122.204 25.6647 121.36 26.3151 119.672 26.3151H103.746C104.238 30.9207 106.875 33.2235 111.656 33.2235C112.571 33.2235 113.59 33.1181 114.715 32.9071C115.875 32.661 116.965 32.2567 117.985 31.6942C118.899 31.1668 119.672 31.0086 120.305 31.2196C120.938 31.3954 121.377 31.7645 121.624 32.327C121.905 32.8895 121.94 33.5224 121.729 34.2255C121.553 34.8935 121.061 35.4736 120.252 35.9658C119.022 36.7393 117.598 37.3193 115.981 37.7061C114.399 38.0576 112.922 38.2334 111.551 38.2334ZM110.602 15.8735C108.668 15.8735 107.104 16.4711 105.908 17.6665C104.713 18.8618 103.992 20.4791 103.746 22.5182H116.719C116.578 20.3736 115.981 18.7388 114.926 17.6138C113.907 16.4536 112.465 15.8735 110.602 15.8735Z" fill="white"/>
<path d="M130.799 38.128C128.549 38.128 127.424 37.0029 127.424 34.7529V14.8188C127.424 12.6039 128.496 11.4964 130.641 11.4964C132.786 11.4964 133.858 12.6039 133.858 14.8188V16.4536C135.123 13.43 137.831 11.7425 141.979 11.3909C143.491 11.2151 144.335 12.0765 144.51 13.975C144.686 15.8383 143.772 16.8754 141.768 17.0864L140.608 17.1919C136.284 17.6137 134.122 19.8287 134.122 23.8366V34.7529C134.122 37.0029 133.014 38.128 130.799 38.128Z" fill="white"/>
<path d="M156.308 38.2334C154.445 38.2334 152.775 37.8819 151.299 37.1787C149.857 36.4404 148.714 35.456 147.871 34.2255C147.062 32.995 146.658 31.6063 146.658 30.0594C146.658 28.1609 147.15 26.6667 148.134 25.5768C149.119 24.4518 150.718 23.6432 152.933 23.151C155.148 22.6588 158.119 22.4127 161.846 22.4127H163.691V21.3053C163.691 19.5474 163.305 18.2817 162.531 17.5083C161.758 16.7348 160.457 16.3481 158.629 16.3481C157.609 16.3481 156.502 16.4711 155.306 16.7172C154.146 16.9633 152.916 17.3852 151.615 17.9829C150.771 18.3696 150.068 18.4224 149.506 18.1411C148.943 17.8247 148.556 17.3501 148.345 16.7172C148.17 16.0493 148.205 15.3813 148.451 14.7133C148.732 14.0453 149.277 13.5531 150.086 13.2367C151.703 12.5687 153.25 12.0941 154.726 11.8128C156.238 11.5316 157.609 11.3909 158.84 11.3909C162.602 11.3909 165.397 12.2699 167.225 14.0277C169.053 15.7504 169.967 18.4399 169.967 22.0963V34.7529C169.967 37.0029 168.947 38.128 166.908 38.128C164.834 38.128 163.797 37.0029 163.797 34.7529V33.5927C163.199 35.0341 162.25 36.1767 160.949 37.0205C159.648 37.8291 158.101 38.2334 156.308 38.2334ZM157.68 33.6982C159.402 33.6982 160.826 33.1005 161.951 31.9051C163.111 30.7098 163.691 29.198 163.691 27.3699V26.2097H161.898C158.594 26.2097 156.291 26.4734 154.99 27.0007C153.724 27.4929 153.092 28.407 153.092 29.743C153.092 30.9032 153.496 31.8524 154.304 32.5907C155.113 33.329 156.238 33.6982 157.68 33.6982Z" fill="white"/>
<path d="M185.465 38.2334C179.593 38.2334 176.658 34.9462 176.658 28.3718V3.42782C176.658 1.21292 177.748 0.10547 179.927 0.10547C182.142 0.10547 183.25 1.21292 183.25 3.42782V28.0554C183.25 31.2196 184.568 32.8017 187.205 32.8017C187.486 32.8017 187.75 32.8017 187.996 32.8017C188.242 32.7665 188.488 32.7313 188.734 32.6962C189.227 32.6259 189.561 32.7665 189.736 33.1181C189.912 33.4345 190 34.1025 190 35.122C190 36.001 189.824 36.6865 189.473 37.1787C189.121 37.6709 188.541 37.9698 187.732 38.0752C186.994 38.1807 186.238 38.2334 185.465 38.2334Z" fill="white"/>
<path d="M98.7477 68.3786C97.8726 68.3786 97.4351 67.9274 97.4351 67.025V55.9505H93.436C92.684 55.9505 92.308 55.5814 92.308 54.8431C92.308 54.1184 92.684 53.7561 93.436 53.7561H104.059C104.811 53.7561 105.187 54.1184 105.187 54.8431C105.187 55.5814 104.811 55.9505 104.059 55.9505H100.06V67.025C100.06 67.9274 99.6227 68.3786 98.7477 68.3786Z" fill="white"/>
<path d="M109.781 68.4196C108.646 68.4196 107.668 68.2077 106.848 67.7838C106.027 67.36 105.392 66.7584 104.941 65.9791C104.503 65.1998 104.284 64.2769 104.284 63.2105C104.284 62.1714 104.496 61.2622 104.92 60.4829C105.358 59.7035 105.952 59.0951 106.704 58.6576C107.47 58.2064 108.338 57.9808 109.309 57.9808C110.731 57.9808 111.852 58.432 112.672 59.3344C113.506 60.2367 113.923 61.4673 113.923 63.0259C113.923 63.5318 113.595 63.7847 112.939 63.7847H106.745C106.937 65.5758 107.962 66.4713 109.822 66.4713C110.177 66.4713 110.574 66.4303 111.011 66.3482C111.462 66.2525 111.886 66.0953 112.283 65.8765C112.638 65.6715 112.939 65.6099 113.185 65.692C113.431 65.7603 113.602 65.9039 113.698 66.1226C113.807 66.3414 113.821 66.5875 113.739 66.8609C113.67 67.1207 113.479 67.3463 113.164 67.5377C112.686 67.8385 112.132 68.0641 111.503 68.2145C110.888 68.3512 110.314 68.4196 109.781 68.4196ZM109.411 59.724C108.659 59.724 108.051 59.9565 107.586 60.4213C107.121 60.8862 106.841 61.5151 106.745 62.3081H111.79C111.736 61.4741 111.503 60.8383 111.093 60.4008C110.697 59.9496 110.136 59.724 109.411 59.724Z" fill="white"/>
<path d="M120.588 68.4196C119.536 68.4196 118.619 68.2077 117.84 67.7838C117.061 67.3463 116.459 66.7311 116.035 65.9381C115.612 65.1451 115.4 64.2154 115.4 63.1489C115.4 62.0825 115.612 61.1665 116.035 60.4008C116.459 59.6215 117.061 59.0268 117.84 58.6166C118.619 58.1927 119.536 57.9808 120.588 57.9808C121.039 57.9808 121.525 58.0424 122.044 58.1654C122.578 58.2885 123.077 58.4935 123.541 58.7807C123.815 58.9447 123.972 59.1566 124.013 59.4164C124.068 59.6762 124.034 59.9155 123.911 60.1342C123.801 60.353 123.63 60.5102 123.398 60.6059C123.179 60.7016 122.926 60.6674 122.639 60.5034C122.01 60.1479 121.402 59.9701 120.814 59.9701C119.925 59.9701 119.235 60.2504 118.743 60.811C118.264 61.3579 118.025 62.144 118.025 63.1694C118.025 64.1812 118.264 64.981 118.743 65.5689C119.235 66.1432 119.925 66.4303 120.814 66.4303C121.402 66.4303 122.01 66.2594 122.639 65.9176C122.926 65.7535 123.179 65.7193 123.398 65.815C123.617 65.9107 123.774 66.0748 123.87 66.3072C123.965 66.526 123.986 66.7652 123.931 67.025C123.876 67.2711 123.719 67.4762 123.459 67.6403C123.008 67.9137 122.53 68.112 122.024 68.235C121.518 68.3581 121.039 68.4196 120.588 68.4196Z" fill="white"/>
<path d="M126.898 68.3786C126.051 68.3786 125.627 67.9411 125.627 67.066V59.3139C125.627 58.4525 126.044 58.0218 126.878 58.0218C127.712 58.0218 128.129 58.4525 128.129 59.3139V59.7445C128.471 59.1703 128.929 58.7328 129.503 58.432C130.091 58.1312 130.747 57.9808 131.472 57.9808C133.837 57.9808 135.02 59.3549 135.02 62.103V67.066C135.02 67.9411 134.596 68.3786 133.748 68.3786C132.887 68.3786 132.456 67.9411 132.456 67.066V62.2261C132.456 61.4467 132.306 60.8793 132.005 60.5239C131.718 60.1684 131.267 59.9906 130.651 59.9906C129.899 59.9906 129.298 60.2299 128.847 60.7084C128.409 61.1733 128.19 61.7954 128.19 62.5747V67.066C128.19 67.9411 127.76 68.3786 126.898 68.3786Z" fill="white"/>
<path d="M142.197 68.4196C141.158 68.4196 140.255 68.2077 139.49 67.7838C138.724 67.36 138.129 66.7584 137.705 65.9791C137.282 65.1861 137.07 64.2564 137.07 63.19C137.07 62.1235 137.282 61.2006 137.705 60.4213C138.129 59.642 138.724 59.0404 139.49 58.6166C140.255 58.1927 141.158 57.9808 142.197 57.9808C143.236 57.9808 144.138 58.1927 144.904 58.6166C145.669 59.0404 146.264 59.642 146.688 60.4213C147.112 61.2006 147.324 62.1235 147.324 63.19C147.324 64.2564 147.112 65.1861 146.688 65.9791C146.264 66.7584 145.669 67.36 144.904 67.7838C144.138 68.2077 143.236 68.4196 142.197 68.4196ZM142.197 66.4713C142.962 66.4713 143.578 66.1978 144.042 65.651C144.507 65.0904 144.74 64.2701 144.74 63.19C144.74 62.0962 144.507 61.2827 144.042 60.7495C143.578 60.2026 142.962 59.9291 142.197 59.9291C141.431 59.9291 140.816 60.2026 140.351 60.7495C139.886 61.2827 139.654 62.0962 139.654 63.19C139.654 64.2701 139.886 65.0904 140.351 65.651C140.816 66.1978 141.431 66.4713 142.197 66.4713Z" fill="white"/>
<path d="M152.865 68.4196C150.581 68.4196 149.44 67.1412 149.44 64.5845V54.8841C149.44 54.0227 149.864 53.592 150.711 53.592C151.573 53.592 152.003 54.0227 152.003 54.8841V64.4615C152.003 65.692 152.516 66.3072 153.541 66.3072C153.651 66.3072 153.753 66.3072 153.849 66.3072C153.945 66.2936 154.04 66.2799 154.136 66.2662C154.328 66.2389 154.457 66.2935 154.526 66.4303C154.594 66.5533 154.628 66.8131 154.628 67.2096C154.628 67.5514 154.56 67.818 154.423 68.0094C154.286 68.2008 154.061 68.317 153.746 68.3581C153.459 68.3991 153.165 68.4196 152.865 68.4196Z" fill="white"/>
<path d="M160.462 68.4196C159.423 68.4196 158.521 68.2077 157.755 67.7838C156.989 67.36 156.394 66.7584 155.971 65.9791C155.547 65.1861 155.335 64.2564 155.335 63.19C155.335 62.1235 155.547 61.2006 155.971 60.4213C156.394 59.642 156.989 59.0404 157.755 58.6166C158.521 58.1927 159.423 57.9808 160.462 57.9808C161.501 57.9808 162.403 58.1927 163.169 58.6166C163.935 59.0404 164.529 59.642 164.953 60.4213C165.377 61.2006 165.589 62.1235 165.589 63.19C165.589 64.2564 165.377 65.1861 164.953 65.9791C164.529 66.7584 163.935 67.36 163.169 67.7838C162.403 68.2077 161.501 68.4196 160.462 68.4196ZM160.462 66.4713C161.228 66.4713 161.843 66.1978 162.308 65.651C162.773 65.0904 163.005 64.2701 163.005 63.19C163.005 62.0962 162.773 61.2827 162.308 60.7495C161.843 60.2026 161.228 59.9291 160.462 59.9291C159.696 59.9291 159.081 60.2026 158.616 60.7495C158.151 61.2827 157.919 62.0962 157.919 63.19C157.919 64.2701 158.151 65.0904 158.616 65.651C159.081 66.1978 159.696 66.4713 160.462 66.4713Z" fill="white"/>
<path d="M172.381 72.1111C171.643 72.1111 170.925 72.0427 170.227 71.906C169.544 71.7693 168.922 71.5574 168.361 71.2702C168.033 71.1062 167.835 70.8943 167.766 70.6345C167.712 70.3884 167.739 70.1491 167.848 69.9167C167.958 69.6843 168.122 69.5134 168.341 69.404C168.573 69.3083 168.819 69.322 169.079 69.445C169.681 69.7458 170.248 69.9372 170.781 70.0192C171.328 70.1149 171.793 70.1628 172.176 70.1628C174.008 70.1628 174.924 69.2809 174.924 67.5172V66.1432C174.637 66.7037 174.192 67.1481 173.591 67.4762C173.003 67.8043 172.347 67.9684 171.622 67.9684C170.72 67.9684 169.934 67.7633 169.264 67.3531C168.594 66.9293 168.074 66.3414 167.705 65.5894C167.336 64.8375 167.151 63.9624 167.151 62.9644C167.151 61.9663 167.336 61.0981 167.705 60.3598C168.074 59.6078 168.594 59.0268 169.264 58.6166C169.934 58.1927 170.72 57.9808 171.622 57.9808C172.347 57.9808 173.003 58.1381 173.591 58.4525C174.179 58.767 174.609 59.1977 174.883 59.7445V59.3139C174.883 58.89 174.992 58.5687 175.211 58.35C175.443 58.1312 175.758 58.0218 176.154 58.0218C177.002 58.0218 177.426 58.4525 177.426 59.3139V67.2096C177.426 68.8366 176.995 70.0603 176.134 70.8806C175.273 71.7009 174.022 72.1111 172.381 72.1111ZM172.319 66.0201C173.112 66.0201 173.741 65.7467 174.206 65.1998C174.671 64.6529 174.903 63.9077 174.903 62.9644C174.903 62.021 174.671 61.2827 174.206 60.7495C173.741 60.2026 173.112 59.9291 172.319 59.9291C171.526 59.9291 170.897 60.2026 170.433 60.7495C169.968 61.2827 169.735 62.021 169.735 62.9644C169.735 63.9077 169.968 64.6529 170.433 65.1998C170.897 65.7467 171.526 66.0201 172.319 66.0201Z" fill="white"/>
<path d="M182.625 72.0701C182.16 72.0701 181.839 71.8992 181.661 71.5574C181.483 71.2156 181.49 70.8259 181.682 70.3884L182.851 67.8043L179.344 59.724C179.152 59.2729 179.152 58.8764 179.344 58.5346C179.535 58.1927 179.911 58.0218 180.472 58.0218C180.786 58.0218 181.039 58.097 181.231 58.2474C181.422 58.3842 181.593 58.6508 181.743 59.0473L184.204 65.1998L186.727 59.0268C186.877 58.6439 187.055 58.3842 187.26 58.2474C187.465 58.097 187.739 58.0218 188.08 58.0218C188.518 58.0218 188.825 58.1927 189.003 58.5346C189.181 58.8764 189.174 59.266 188.983 59.7035L183.999 71.0857C183.821 71.4685 183.63 71.7283 183.425 71.865C183.22 72.0017 182.953 72.0701 182.625 72.0701Z" fill="white"/>
</svg>
