<svg width="115" height="115" viewBox="0 0 115 115" fill="none" xmlns="http://www.w3.org/2000/svg">
<path d="M89.149 93.2937C94.9323 89.291 99.6537 83.9404 102.905 77.7041C106.157 71.4677 107.841 64.5332 107.813 57.5V57.4281C107.778 55.2326 106.955 53.1226 105.495 51.4824C104.035 49.8422 102.035 48.7808 99.8583 48.4917L96.8156 48.0604C96.1654 47.9648 95.5065 47.9406 94.8511 47.9885L90.7063 48.276L77.026 49.2583L67.5865 49.9292C65.2223 50.0995 62.8626 49.5432 60.8235 48.3345C58.7844 47.126 57.1636 45.3229 56.1782 43.1672C55.1928 41.0114 54.8902 38.6057 55.3105 36.2731C55.7309 33.9403 56.8543 31.7917 58.5302 30.1156L64.7594 23.8864C65.4844 23.1618 66.0388 22.2849 66.3828 21.3194C66.7266 20.3539 66.8514 19.3239 66.7479 18.3042C66.5915 16.6345 65.8236 15.0816 64.5917 13.9437C63.3542 12.7962 61.7495 12.1254 60.0635 12.051C59.201 12.0031 58.3625 11.9792 57.5 11.9792C29.7083 11.9792 7.1875 31.026 7.1875 57.5C7.1875 83.974 29.7083 103.021 57.5 103.021C64.779 103.06 71.9962 101.684 78.751 98.9719L89.149 93.2937Z" fill="#731FDE" fill-opacity="0.39"/>
<path d="M99.8584 48.4917L96.8157 48.0604C96.1654 47.9648 95.5066 47.9406 94.8511 47.9885L90.9123 48.2617C84.9417 62.3436 74.0004 73.7375 60.1719 80.2736C46.3431 86.8099 30.5936 88.0313 15.9227 83.7056C24.9766 95.6465 40.2141 103.021 57.5 103.021C64.779 103.06 71.9963 101.684 78.7511 98.9719L89.149 93.2937C94.932 89.291 99.6538 83.9404 102.905 77.7041C106.157 71.4677 107.842 64.5332 107.813 57.5V57.4281C107.778 55.2326 106.955 53.1226 105.496 51.4824C104.035 49.8422 102.035 48.7808 99.8584 48.4917Z" fill="#731FDE" fill-opacity="0.39"/>
<path d="M26.3542 55.1042C30.3238 55.1042 33.5417 51.8863 33.5417 47.9167C33.5417 43.947 30.3238 40.7292 26.3542 40.7292C22.3846 40.7292 19.1667 43.947 19.1667 47.9167C19.1667 51.8863 22.3846 55.1042 26.3542 55.1042Z" fill="#FD3730"/>
<path d="M32.3438 80.2604C36.3134 80.2604 39.5312 77.0426 39.5312 73.0729C39.5312 69.1033 36.3134 65.8854 32.3438 65.8854C28.3741 65.8854 25.1562 69.1033 25.1562 73.0729C25.1562 77.0426 28.3741 80.2604 32.3438 80.2604Z" fill="#FAC100"/>
<path d="M57.5 91.0417C61.4697 91.0417 64.6875 87.8238 64.6875 83.8542C64.6875 79.8845 61.4697 76.6667 57.5 76.6667C53.5303 76.6667 50.3125 79.8845 50.3125 83.8542C50.3125 87.8238 53.5303 91.0417 57.5 91.0417Z" fill="#00CF66"/>
<path d="M57.5 91.0419C58.9016 91.0452 60.2732 90.638 61.4457 89.8701C62.618 89.1022 63.5397 88.0076 64.0962 86.7213C64.653 85.4352 64.8207 84.014 64.5783 82.6337C64.3358 81.2535 63.6942 79.9744 62.7325 78.9549C58.7844 81.0549 54.62 82.72 50.3125 83.9215C50.3302 85.8161 51.0952 87.6271 52.4412 88.9604C53.7872 90.2939 55.6054 91.0419 57.5 91.0419Z" fill="#00B157"/>
<path d="M83.8539 107.813C82.5676 107.813 81.3314 107.313 80.4066 106.419C79.4818 105.525 78.9403 104.306 78.897 103.021L76.906 45.5208C76.8737 44.5884 77.0297 43.6593 77.3643 42.7884C77.6993 41.9175 78.2058 41.1231 78.8543 40.4522C79.5026 39.7816 80.2796 39.2483 81.1385 38.8841C81.9974 38.5202 82.921 38.3329 83.8539 38.3333C84.7869 38.3329 85.7102 38.5202 86.5691 38.8841C87.4283 39.2483 88.205 39.7816 88.8536 40.4522C89.5019 41.1231 90.0086 41.9175 90.3433 42.7884C90.678 43.6593 90.834 44.5884 90.8019 45.5208L88.8181 103.021C88.7745 104.308 88.2321 105.527 87.3059 106.422C86.3794 107.316 85.1415 107.814 83.8539 107.813Z" fill="#FFD188"/>
<path d="M81.643 7.1875C81.643 13.8216 75.009 18.2443 75.009 27.0921C75.009 29.4381 75.941 31.688 77.5998 33.3466C79.2587 35.0055 81.5084 35.9375 83.8544 35.9375C86.2004 35.9375 88.4503 35.0055 90.1089 33.3466C91.7678 31.688 92.6998 29.4381 92.6998 27.0921C92.6998 16.0329 81.643 7.1875 81.643 7.1875Z" fill="#E67244"/>
<path d="M75.842 30.7908C76.683 32.6231 78.1253 34.1123 79.9298 35.0115C81.7341 35.9104 83.7919 36.1651 85.7608 35.7329C87.7299 35.3009 89.4921 34.2079 90.7542 32.636C92.0163 31.0641 92.7025 29.1077 92.6991 27.0916C92.6783 24.9543 92.2916 22.8361 91.5563 20.829C89.7345 23.4544 87.4055 25.6884 84.7066 27.3995C82.0077 29.1103 78.9938 30.2634 75.842 30.7908Z" fill="#C6512B"/>
<path d="M110.208 57.4276C110.165 54.6573 109.132 51.9941 107.296 49.9198C105.459 47.8455 102.941 46.4971 100.196 46.1193L97.1678 45.6881C96.3461 45.5704 95.514 45.54 94.6858 45.597L93.1836 45.7024V45.597C93.2619 43.9159 92.8719 42.2462 92.0566 40.774C91.2413 39.3017 90.0333 38.0851 88.5668 37.2595C90.5101 36.3623 92.1565 34.9286 93.3122 33.1272C94.468 31.326 95.0851 29.2318 95.0906 27.0916C95.0906 15.0213 83.6242 5.70629 83.1354 5.31577C82.783 5.03503 82.3585 4.85939 81.9107 4.80903C81.4629 4.75865 81.0101 4.83558 80.604 5.03096C80.1979 5.22634 79.8553 5.53228 79.6152 5.91363C79.3752 6.295 79.2475 6.73631 79.247 7.18692C78.9842 9.81088 78.0683 12.3272 76.5828 14.5062C74.1487 18.2665 72.7771 22.6152 72.6129 27.0916C72.6185 29.2318 73.2356 31.326 74.3914 33.1272C75.5471 34.9286 77.1935 36.3623 79.1368 37.2595C77.6703 38.0851 76.4623 39.3017 75.647 40.774C74.8317 42.2462 74.4417 43.9159 74.52 45.597L74.5703 47.0345L67.414 47.5448C66.0939 47.6354 64.7697 47.4428 63.5301 46.9801C62.2905 46.5173 61.1642 45.7949 60.2265 44.8615C58.4974 43.1305 57.5264 40.784 57.5264 38.3376C57.5264 35.891 58.4974 33.5445 60.2265 31.8138L66.4557 25.5846C67.3397 24.6996 68.0367 23.6457 68.5048 22.4857C68.973 21.3256 69.2025 20.0832 69.1802 18.8325C69.1579 17.5818 68.8838 16.3484 68.3747 15.2058C67.8654 14.0633 67.1313 13.035 66.2161 12.1822C64.572 10.6582 62.4419 9.76531 60.2025 9.66181C59.2921 9.60911 58.408 9.58275 57.5 9.58275C27.4515 9.58275 4.79169 30.187 4.79169 57.4995C4.79169 84.812 27.4515 105.416 57.5 105.416C63.953 105.424 70.3633 104.372 76.475 102.302L76.5038 103.104C76.5725 105.008 77.3771 106.81 78.7479 108.133C80.1188 109.455 81.9495 110.194 83.8542 110.194C85.7589 110.194 87.5895 109.455 88.9604 108.133C90.3313 106.81 91.1358 105.008 91.2046 103.104L91.5017 94.5175C97.3178 90.2426 102.043 84.6558 105.294 78.2113C108.544 71.7665 110.228 64.6456 110.208 57.4276ZM79.3021 45.4341C79.2674 44.8157 79.3591 44.1967 79.5716 43.6149C79.7844 43.0335 80.1136 42.5014 80.5391 42.0512C80.9646 41.6012 81.4773 41.2426 82.0461 40.9975C82.6148 40.7526 83.2277 40.6261 83.847 40.6261C84.4663 40.6261 85.0792 40.7526 85.6479 40.9975C86.2167 41.2426 86.7294 41.6012 87.1549 42.0512C87.5804 42.5014 87.9096 43.0335 88.1224 43.6149C88.3349 44.1967 88.4266 44.8157 88.3919 45.4341L88.2314 50.312H79.477L79.3021 45.4341ZM80.7755 16.8134C81.6824 15.2509 82.4713 13.6227 83.1354 11.9426C86.1326 15.1842 90.2966 20.8072 90.2966 27.0916C90.2966 28.802 89.6171 30.4424 88.4075 31.6521C87.1981 32.8615 85.5576 33.5412 83.847 33.5412C82.1364 33.5412 80.4959 32.8615 79.2865 31.6521C78.0769 30.4424 77.3974 28.802 77.3974 27.0916C77.5773 23.4227 78.7472 19.871 80.7827 16.8134H80.7755ZM57.5 100.625C30.1875 100.625 9.58335 82.0856 9.58335 57.4995C9.58335 32.9135 30.1875 14.3744 57.5 14.3744C58.317 14.3744 59.11 14.396 59.9677 14.4439C61.0866 14.4967 62.1503 14.945 62.9697 15.7089C63.7714 16.451 64.2683 17.4646 64.3641 18.5528C64.4295 19.2176 64.3471 19.8886 64.1226 20.5178C63.8981 21.147 63.537 21.7188 63.0655 22.192L56.8364 28.4213C54.816 30.4426 53.4616 33.0333 52.9547 35.8462C52.4477 38.6589 52.8126 41.5593 54.0004 44.159C55.188 46.7588 57.1418 48.9332 59.6002 50.3913C62.0583 51.8494 64.9034 52.5215 67.7542 52.3173L74.7333 51.8214L76.3001 97.2919C70.2818 99.5133 63.9151 100.642 57.5 100.625ZM83.8542 105.416C83.1891 105.418 82.5494 105.161 82.071 104.699C81.5928 104.236 81.3137 103.606 81.293 102.941L79.6423 55.1037H88.0661L86.4153 102.941C86.3947 103.606 86.1156 104.236 85.6374 104.699C85.159 105.161 84.5193 105.418 83.8542 105.416ZM91.7197 88.1662L93.0183 50.5181L95.0331 50.3767C95.513 50.3444 95.9948 50.3628 96.4706 50.4318L99.5086 50.8631C101.126 51.0756 102.613 51.8631 103.698 53.0816C104.783 54.3001 105.393 55.8682 105.417 57.4995C105.432 63.2888 104.219 69.0158 101.858 74.302C99.4968 79.5881 96.0413 84.3134 91.7197 88.1662Z" fill="black"/>
<path d="M35.9375 47.9167C35.9375 46.0213 35.3754 44.1684 34.3225 42.5924C33.2695 41.0164 31.7726 39.7881 30.0215 39.0629C28.2703 38.3374 26.3436 38.1476 24.4844 38.5176C22.6256 38.8872 20.918 39.8001 19.5777 41.1403C18.2374 42.4805 17.3247 44.188 16.955 46.0469C16.5852 47.9061 16.775 49.8328 17.5003 51.584C18.2256 53.3351 19.454 54.832 21.0299 55.885C22.6059 56.9379 24.4588 57.5 26.3541 57.5C28.8959 57.5 31.3334 56.4904 33.1305 54.693C34.9279 52.8959 35.9375 50.4584 35.9375 47.9167ZM21.5625 47.9167C21.5625 46.9689 21.8435 46.0426 22.37 45.2546C22.8966 44.4667 23.6449 43.8524 24.5204 43.4896C25.3961 43.1271 26.3594 43.0323 27.289 43.217C28.2183 43.4019 29.0722 43.8584 29.7423 44.5285C30.4125 45.1986 30.8689 46.0525 31.0538 46.9818C31.2385 47.9114 31.1437 48.8747 30.7812 49.7504C30.4184 50.6259 29.8041 51.3743 29.0162 51.9007C28.2282 52.4273 27.3019 52.7083 26.3541 52.7083C25.0834 52.7083 23.8645 52.2035 22.9659 51.3048C22.0673 50.4062 21.5625 49.1874 21.5625 47.9167Z" fill="black"/>
<path d="M32.3438 63.4896C30.4484 63.4896 28.5955 64.0517 27.0195 65.1046C25.4435 66.1576 24.2152 67.6545 23.4899 69.4056C22.7646 71.1567 22.5748 73.0835 22.9446 74.9426C23.3144 76.8016 24.2272 78.5091 25.5674 79.8493C26.9076 81.1895 28.6151 82.1023 30.4741 82.472C32.3332 82.8419 34.26 82.6522 36.0111 81.9267C37.7622 81.2015 39.2591 79.9732 40.3121 78.3972C41.365 76.8212 41.9271 74.9683 41.9271 73.0729C41.9271 70.5312 40.9175 68.0937 39.1201 66.2966C37.323 64.4992 34.8855 63.4896 32.3438 63.4896ZM32.3438 77.8646C31.396 77.8646 30.4698 77.5836 29.6818 77.057C28.8938 76.5306 28.2795 75.7821 27.9168 74.9067C27.5543 74.031 27.4594 73.0677 27.6441 72.1381C27.8291 71.2087 28.2855 70.3549 28.9556 69.6847C29.6257 69.0146 30.4796 68.5582 31.4089 68.3733C32.3385 68.1885 33.3019 68.2834 34.1775 68.6459C35.053 69.0086 35.8014 69.6229 36.3278 70.4109C36.8544 71.1989 37.1354 72.1251 37.1354 73.0729C37.1354 74.3437 36.6306 75.5624 35.732 76.4611C34.8333 77.3598 33.6145 77.8646 32.3438 77.8646Z" fill="black"/>
<path d="M57.5 74.2708C55.6047 74.2708 53.7517 74.8329 52.1758 75.8858C50.5998 76.9388 49.3714 78.4357 48.6462 80.1868C47.9208 81.938 47.731 83.8647 48.1009 85.7239C48.4706 87.5828 49.3834 89.2903 50.7237 90.6305C52.0639 91.9708 53.7714 92.8836 55.6303 93.2532C57.4895 93.6232 59.4162 93.4334 61.1673 92.708C62.9184 91.9827 64.4154 90.7544 65.4683 89.1784C66.5213 87.6024 67.0834 85.7495 67.0834 83.8541C67.0834 81.3124 66.0737 78.8749 64.2764 77.0778C62.4793 75.2804 60.0418 74.2708 57.5 74.2708ZM57.5 88.6458C56.5522 88.6458 55.626 88.3648 54.838 87.8382C54.05 87.3118 53.4357 86.5634 53.073 85.6879C52.7105 84.8122 52.6156 83.8489 52.8004 82.9193C52.9853 81.9899 53.4417 81.1361 54.1118 80.466C54.782 79.7958 55.6358 79.3394 56.5652 79.1545C57.4948 78.9698 58.4581 79.0646 59.3338 79.4271C60.2092 79.7899 60.9577 80.4041 61.4841 81.1921C62.0107 81.9801 62.2917 82.9064 62.2917 83.8541C62.2917 85.1249 61.7869 86.3437 60.8882 87.2423C59.9895 88.141 58.7708 88.6458 57.5 88.6458Z" fill="black"/>
</svg>
