<svg width="22" height="22" viewBox="0 0 22 22" fill="none" xmlns="http://www.w3.org/2000/svg">
<path d="M21.5766 6.24168C21.5276 5.13019 21.3478 4.36606 21.0904 3.70392C20.8247 3.00108 20.4161 2.37183 19.8807 1.84873C19.3576 1.31749 18.7242 0.904695 18.0295 0.643225C17.3635 0.385746 16.6034 0.206006 15.4919 0.157C14.3721 0.103844 14.0166 0.0915527 11.1765 0.0915527C8.33643 0.0915527 7.98094 0.103844 6.86531 0.15285C5.75382 0.201855 4.98968 0.381756 4.32771 0.639075C3.62471 0.904695 2.99546 1.31334 2.47236 1.84873C1.94112 2.37183 1.52848 3.00523 1.26685 3.69993C1.00937 4.36606 0.829632 5.12604 0.780627 6.23753C0.727471 7.35732 0.715179 7.71281 0.715179 10.5529C0.715179 13.393 0.727471 13.7485 0.776476 14.8641C0.825482 15.9756 1.00538 16.7397 1.26286 17.4019C1.52848 18.1047 1.94112 18.734 2.47236 19.2571C2.99546 19.7883 3.62886 20.2011 4.32356 20.4626C4.98968 20.7201 5.74967 20.8998 6.86132 20.9488C7.97679 20.998 8.33244 21.0101 11.1725 21.0101C14.0126 21.0101 14.3681 20.998 15.4838 20.9488C16.5952 20.8998 17.3594 20.7201 18.0214 20.4626C19.4272 19.919 20.5387 18.8076 21.0822 17.4019C21.3395 16.7358 21.5194 15.9756 21.5684 14.8641C21.6174 13.7485 21.6297 13.393 21.6297 10.5529C21.6297 7.71281 21.6256 7.35732 21.5766 6.24168ZM19.6928 14.7824C19.6478 15.804 19.4762 16.3557 19.3332 16.7235C18.9817 17.6348 18.2584 18.358 17.3471 18.7095C16.9793 18.8526 16.4236 19.0242 15.406 19.069C14.3027 19.1182 13.9718 19.1303 11.1807 19.1303C8.38959 19.1303 8.05453 19.1182 6.95518 19.069C5.93356 19.0242 5.38189 18.8526 5.01411 18.7095C4.56061 18.5419 4.14781 18.2763 3.81275 17.929C3.4654 17.5898 3.19978 17.1811 3.03217 16.7276C2.88915 16.3598 2.71755 15.804 2.67269 14.7865C2.62353 13.6832 2.61139 13.3521 2.61139 10.561C2.61139 7.76995 2.62353 7.4349 2.67269 6.3357C2.71755 5.31409 2.88915 4.76241 3.03217 4.39463C3.19978 3.94097 3.4654 3.52833 3.8169 3.19311C4.15595 2.84577 4.5646 2.58015 5.01826 2.4127C5.38604 2.26967 5.94186 2.09807 6.95933 2.05306C8.06267 2.00405 8.39374 1.99176 11.1847 1.99176C13.9799 1.99176 14.3108 2.00405 15.4102 2.05306C16.4318 2.09807 16.9835 2.26967 17.3512 2.4127C17.8047 2.58015 18.2175 2.84577 18.5526 3.19311C18.8999 3.53232 19.1656 3.94097 19.3332 4.39463C19.4762 4.76241 19.6478 5.31808 19.6928 6.3357C19.7418 7.43905 19.7541 7.76995 19.7541 10.561C19.7541 13.3521 19.7418 13.679 19.6928 14.7824Z" fill="white"/>
<path d="M11.1765 5.1792C8.20985 5.1792 5.80283 7.58606 5.80283 10.5529C5.80283 13.5197 8.20985 15.9266 11.1765 15.9266C14.1434 15.9266 16.5502 13.5197 16.5502 10.5529C16.5502 7.58606 14.1434 5.1792 11.1765 5.1792ZM11.1765 14.0387C9.2519 14.0387 7.69074 12.4777 7.69074 10.5529C7.69074 8.62811 9.2519 7.06711 11.1765 7.06711C13.1013 7.06711 14.6623 8.62811 14.6623 10.5529C14.6623 12.4777 13.1013 14.0387 11.1765 14.0387Z" fill="white"/>
<path d="M18.0174 4.96667C18.0174 5.65945 17.4556 6.22118 16.7627 6.22118C16.0699 6.22118 15.5082 5.65945 15.5082 4.96667C15.5082 4.27373 16.0699 3.71216 16.7627 3.71216C17.4556 3.71216 18.0174 4.27373 18.0174 4.96667Z" fill="white"/>
</svg>
