<svg width="22" height="20" viewBox="0 0 22 20" fill="none" xmlns="http://www.w3.org/2000/svg">
<path d="M3.39391 0C1.8603 0 0.85759 1.00705 0.85759 2.33068C0.85759 3.62507 1.83043 4.66084 3.33507 4.66084H3.36417C4.92778 4.66084 5.90088 3.62507 5.90088 2.33068C5.87164 1.00705 4.92778 0 3.39391 0Z" fill="white"/>
<path d="M1.12259 6.50244H5.606V19.9909H1.12259V6.50244Z" fill="white"/>
<path d="M16.6106 6.18579C14.192 6.18579 12.5702 8.45851 12.5702 8.45851V6.50237H8.08666V19.9909H12.5699V12.4584C12.5699 12.0551 12.5992 11.6525 12.7176 11.3641C13.0417 10.5589 13.7793 9.7247 15.0179 9.7247C16.6403 9.7247 17.2891 10.9616 17.2891 12.7749V19.9909H21.7721V12.2568C21.7721 8.11372 19.5602 6.18579 16.6106 6.18579Z" fill="white"/>
</svg>
