<svg width="152" height="50" viewBox="0 0 152 50" fill="none" xmlns="http://www.w3.org/2000/svg">
<path d="M59.392 33.8941C59.2187 33.9565 59.1926 34.0459 59.259 34.3876C59.2884 34.5518 59.9077 37.9815 60.633 42.011C61.3552 46.0402 61.9632 49.3852 61.9809 49.4429C62.0436 49.6359 62.2862 49.7117 62.4399 49.5821C62.4877 49.5416 63.1038 48.2977 64.2224 45.9874C65.1622 44.0416 65.9371 42.4463 65.9472 42.4383C65.9574 42.4302 67.6851 42.0505 69.7872 41.5958C72.8443 40.9329 73.6271 40.7533 73.6858 40.6986C73.7269 40.6635 73.7765 40.583 73.7929 40.5232C73.8376 40.3804 73.7881 40.2817 73.6294 40.1976C73.5279 40.1482 67.5684 37.4525 60.6733 34.3434C60.1026 34.0856 59.6036 33.8705 59.5642 33.8657C59.5249 33.8609 59.4497 33.8734 59.392 33.8941Z" fill="url(#paint0_linear_15_152)"/>
<path d="M15.2723 30.7783C11.9816 30.7783 9.19712 30.1557 6.91893 28.9104C4.66887 27.6651 2.9532 25.8962 1.77192 23.6038C0.590641 21.3113 0 18.5943 0 15.4528C0 12.283 0.604704 9.55189 1.81411 7.25943C3.02352 4.93868 4.76731 3.15566 7.0455 1.91038C9.32369 0.636793 12.0519 0 15.2301 0C16.8051 0 18.3802 0.198113 19.9552 0.59434C21.5584 0.962264 23.0631 1.59906 24.4694 2.50472C25.0882 2.87264 25.4397 3.36792 25.5241 3.99057C25.6366 4.58491 25.5522 5.15094 25.271 5.68868C24.9897 6.22641 24.5678 6.60849 24.0053 6.83491C23.4428 7.03302 22.824 6.93396 22.149 6.53773C21.0802 5.91509 19.9974 5.46226 18.9005 5.17924C17.8036 4.89623 16.5801 4.75472 15.2301 4.75472C12.08 4.75472 9.68932 5.67453 8.05803 7.51415C6.45486 9.35377 5.65328 12 5.65328 15.4528C5.65328 18.934 6.48299 21.5802 8.1424 23.3915C9.80182 25.2028 12.2628 26.1085 15.5254 26.1085C16.4536 26.1085 17.3958 26.0377 18.3521 25.8962C19.3365 25.7264 20.3068 25.4858 21.2631 25.1745V18.2123H16.6223C15.1598 18.2123 14.4285 17.533 14.4285 16.1745C14.4285 14.8443 15.1598 14.1792 16.6223 14.1792H23.5834C25.046 14.1792 25.7772 14.9151 25.7772 16.3868V26.7028C25.7772 28.0047 25.271 28.8396 24.2585 29.2075C23.0209 29.6604 21.6006 30.0425 19.9974 30.3538C18.3942 30.6368 16.8192 30.7783 15.2723 30.7783Z" fill="url(#paint1_linear_15_152)"/>
<path d="M41.6962 30.7783C39.3618 30.7783 37.3508 30.3396 35.6632 29.4623C33.9757 28.5849 32.6678 27.3396 31.7397 25.7264C30.8397 24.1132 30.3896 22.2028 30.3896 19.9953C30.3896 17.8443 30.8256 15.9623 31.6975 14.3491C32.5975 12.7358 33.821 11.4764 35.3679 10.5708C36.943 9.63679 38.7289 9.16981 40.7259 9.16981C43.6509 9.16981 45.9573 10.1038 47.6448 11.9717C49.3605 13.8396 50.2183 16.3868 50.2183 19.6132C50.2183 20.6604 49.5433 21.184 48.1932 21.184H35.4523C35.846 24.8915 37.9555 26.7453 41.7806 26.7453C42.5118 26.7453 43.3275 26.6604 44.2275 26.4906C45.1557 26.2925 46.0276 25.967 46.8432 25.5142C47.5745 25.0896 48.1932 24.9623 48.6995 25.1321C49.2058 25.2736 49.5573 25.5708 49.7542 26.0236C49.9792 26.4764 50.0074 26.9858 49.8386 27.5519C49.698 28.0896 49.3042 28.5566 48.6573 28.9528C47.6729 29.5755 46.5338 30.0425 45.24 30.3538C43.9744 30.6368 42.7931 30.7783 41.6962 30.7783ZM40.9368 12.7783C39.3899 12.7783 38.1383 13.2594 37.182 14.2217C36.2257 15.184 35.6492 16.4859 35.4523 18.1274H45.8307C45.7182 16.4009 45.24 15.0849 44.3963 14.1792C43.5806 13.2453 42.4275 12.7783 40.9368 12.7783Z" fill="url(#paint2_linear_15_152)"/>
<path d="M57.0103 30.6934C55.2665 30.6934 54.3946 29.7877 54.3946 27.9764V11.9292C54.3946 10.1462 55.2525 9.25472 56.9682 9.25472C58.6838 9.25472 59.5417 10.1462 59.5417 11.9292V12.8208C60.2448 11.6321 61.187 10.7264 62.3683 10.1038C63.5777 9.48113 64.9277 9.16981 66.4184 9.16981C71.2842 9.16981 73.717 12.0142 73.717 17.7028V27.9764C73.717 29.7877 72.8451 30.6934 71.1013 30.6934C69.3294 30.6934 68.4435 29.7877 68.4435 27.9764V17.9575C68.4435 16.3443 68.1341 15.1698 67.5153 14.434C66.9247 13.6981 65.9965 13.3302 64.7309 13.3302C63.1839 13.3302 61.9464 13.8255 61.0183 14.816C60.1182 15.7783 59.6682 17.066 59.6682 18.6792V27.9764C59.6682 29.7877 58.7823 30.6934 57.0103 30.6934Z" fill="url(#paint3_linear_15_152)"/>
<path d="M89.2408 30.7783C86.9064 30.7783 84.8954 30.3396 83.2078 29.4623C81.5203 28.5849 80.2124 27.3396 79.2843 25.7264C78.3843 24.1132 77.9342 22.2028 77.9342 19.9953C77.9342 17.8443 78.3702 15.9623 79.2421 14.3491C80.1421 12.7358 81.3656 11.4764 82.9125 10.5708C84.4875 9.63679 86.2735 9.16981 88.2705 9.16981C91.1955 9.16981 93.5018 10.1038 95.1894 11.9717C96.9051 13.8396 97.7629 16.3868 97.7629 19.6132C97.7629 20.6604 97.0879 21.184 95.7378 21.184H82.9969C83.3906 24.8915 85.5001 26.7453 89.3252 26.7453C90.0564 26.7453 90.8721 26.6604 91.7721 26.4906C92.7003 26.2925 93.5722 25.967 94.3878 25.5142C95.1191 25.0896 95.7378 24.9623 96.2441 25.1321C96.7504 25.2736 97.1019 25.5708 97.2988 26.0236C97.5238 26.4764 97.5519 26.9858 97.3832 27.5519C97.2426 28.0896 96.8488 28.5566 96.2019 28.9528C95.2175 29.5755 94.0784 30.0425 92.7846 30.3538C91.519 30.6368 90.3377 30.7783 89.2408 30.7783ZM88.4814 12.7783C86.9345 12.7783 85.6829 13.2594 84.7266 14.2217C83.7703 15.184 83.1938 16.4859 82.9969 18.1274H93.3753C93.2628 16.4009 92.7846 15.0849 91.9409 14.1792C91.1252 13.2453 89.9721 12.7783 88.4814 12.7783Z" fill="url(#paint4_linear_15_152)"/>
<path d="M104.639 30.6934C102.839 30.6934 101.939 29.7877 101.939 27.9764V11.9292C101.939 10.1462 102.797 9.25472 104.513 9.25472C106.228 9.25472 107.086 10.1462 107.086 11.9292V13.2453C108.099 10.8113 110.264 9.45283 113.583 9.16981C114.793 9.0283 115.468 9.7217 115.608 11.25C115.749 12.75 115.018 13.5849 113.415 13.7547L112.486 13.8396C109.027 14.1792 107.297 15.9623 107.297 19.1887V27.9764C107.297 29.7877 106.411 30.6934 104.639 30.6934Z" fill="url(#paint5_linear_15_152)"/>
<path d="M125.047 30.7783C123.556 30.7783 122.22 30.4953 121.039 29.9292C119.886 29.3349 118.972 28.5425 118.297 27.5519C117.65 26.5613 117.326 25.4434 117.326 24.1981C117.326 22.6698 117.72 21.467 118.508 20.5896C119.295 19.684 120.575 19.033 122.347 18.6368C124.119 18.2406 126.495 18.0425 129.477 18.0425H130.953V17.1509C130.953 15.7358 130.644 14.717 130.025 14.0943C129.406 13.4717 128.366 13.1604 126.903 13.1604C126.087 13.1604 125.201 13.2594 124.245 13.4575C123.317 13.6557 122.333 13.9953 121.292 14.4764C120.617 14.7877 120.054 14.8302 119.604 14.6038C119.154 14.3491 118.845 13.967 118.676 13.4575C118.536 12.9198 118.564 12.3821 118.761 11.8443C118.986 11.3066 119.422 10.9104 120.068 10.6557C121.362 10.1179 122.6 9.73585 123.781 9.50943C124.99 9.28302 126.087 9.16981 127.072 9.16981C130.081 9.16981 132.317 9.87736 133.78 11.2925C135.242 12.6792 135.974 14.8443 135.974 17.7877V27.9764C135.974 29.7877 135.158 30.6934 133.527 30.6934C131.867 30.6934 131.038 29.7877 131.038 27.9764V27.0425C130.559 28.2028 129.8 29.1226 128.759 29.8019C127.719 30.4528 126.481 30.7783 125.047 30.7783ZM126.144 27.1274C127.522 27.1274 128.661 26.6462 129.561 25.684C130.489 24.7217 130.953 23.5047 130.953 22.033V21.0991H129.519C126.875 21.0991 125.033 21.3113 123.992 21.7358C122.98 22.1321 122.473 22.8679 122.473 23.9434C122.473 24.8774 122.797 25.6415 123.444 26.2358C124.09 26.8302 124.99 27.1274 126.144 27.1274Z" fill="url(#paint6_linear_15_152)"/>
<path d="M148.372 30.7783C143.675 30.7783 141.326 28.1321 141.326 22.8396V2.75943C141.326 0.976414 142.198 0.0849046 143.942 0.0849046C145.714 0.0849046 146.6 0.976414 146.6 2.75943V22.5849C146.6 25.1321 147.655 26.4057 149.764 26.4057C149.989 26.4057 150.2 26.4057 150.397 26.4057C150.594 26.3774 150.791 26.3491 150.987 26.3208C151.381 26.2642 151.648 26.3774 151.789 26.6604C151.93 26.9151 152 27.4528 152 28.2736C152 28.9811 151.859 29.533 151.578 29.9292C151.297 30.3255 150.833 30.566 150.186 30.6509C149.595 30.7358 148.991 30.7783 148.372 30.7783Z" fill="url(#paint7_linear_15_152)"/>
<path d="M78.9982 46.9953C78.2982 46.9953 77.9482 46.6321 77.9482 45.9057V36.9906H74.7489C74.1473 36.9906 73.8465 36.6934 73.8465 36.0991C73.8465 35.5157 74.1473 35.2241 74.7489 35.2241H83.2475C83.8491 35.2241 84.1499 35.5157 84.1499 36.0991C84.1499 36.6934 83.8491 36.9906 83.2475 36.9906H80.0482V45.9057C80.0482 46.6321 79.6982 46.9953 78.9982 46.9953Z" fill="url(#paint8_linear_15_152)"/>
<path d="M87.8245 47.0283C86.9166 47.0283 86.1346 46.8577 85.4783 46.5165C84.822 46.1753 84.3134 45.691 83.9525 45.0637C83.6025 44.4363 83.4275 43.6934 83.4275 42.8349C83.4275 41.9984 83.597 41.2665 83.9361 40.6392C84.2861 40.0118 84.7619 39.522 85.3635 39.1698C85.976 38.8066 86.6705 38.625 87.4471 38.625C88.5847 38.625 89.4816 38.9882 90.1378 39.7146C90.805 40.441 91.1386 41.4316 91.1386 42.6863C91.1386 43.0936 90.8761 43.2972 90.3511 43.2972H85.3963C85.5494 44.739 86.3698 45.4599 87.8573 45.4599C88.1417 45.4599 88.4589 45.4269 88.8089 45.3608C89.1698 45.2838 89.5089 45.1572 89.8261 44.9811C90.1105 44.816 90.3511 44.7665 90.548 44.8325C90.7449 44.8876 90.8816 45.0031 90.9582 45.1792C91.0457 45.3553 91.0566 45.5535 90.991 45.7736C90.9363 45.9827 90.7831 46.1643 90.5316 46.3184C90.1488 46.5605 89.7058 46.7421 89.2026 46.8632C88.7104 46.9733 88.2511 47.0283 87.8245 47.0283ZM87.5292 40.0283C86.9276 40.0283 86.4408 40.2154 86.069 40.5896C85.6971 40.9638 85.4729 41.4701 85.3963 42.1085H89.4323C89.3886 41.4371 89.2026 40.9253 88.8745 40.5731C88.5573 40.2099 88.1089 40.0283 87.5292 40.0283Z" fill="url(#paint9_linear_15_152)"/>
<path d="M96.4707 47.0283C95.6285 47.0283 94.8956 46.8577 94.2722 46.5165C93.6487 46.1643 93.1675 45.669 92.8284 45.0307C92.4893 44.3923 92.3198 43.6439 92.3198 42.7854C92.3198 41.9269 92.4893 41.1895 92.8284 40.5731C93.1675 39.9458 93.6487 39.467 94.2722 39.1368C94.8956 38.7956 95.6285 38.625 96.4707 38.625C96.8316 38.625 97.2199 38.6745 97.6355 38.7736C98.0621 38.8726 98.4614 39.0377 98.8332 39.2689C99.052 39.4009 99.1778 39.5715 99.2106 39.7807C99.2543 39.9898 99.227 40.1824 99.1286 40.3585C99.0411 40.5346 98.9043 40.6612 98.7184 40.7382C98.5434 40.8153 98.341 40.7877 98.1113 40.6557C97.6082 40.3695 97.1215 40.2264 96.6511 40.2264C95.9402 40.2264 95.3878 40.452 94.9941 40.9033C94.6112 41.3436 94.4198 41.9764 94.4198 42.8019C94.4198 43.6164 94.6112 44.2602 94.9941 44.7335C95.3878 45.1958 95.9402 45.4269 96.6511 45.4269C97.1215 45.4269 97.6082 45.2893 98.1113 45.0141C98.341 44.8821 98.5434 44.8546 98.7184 44.9316C98.8934 45.0086 99.0192 45.1407 99.0957 45.3278C99.1723 45.5039 99.1887 45.6965 99.145 45.9057C99.1012 46.1038 98.9754 46.2689 98.7676 46.4009C98.4067 46.6211 98.0238 46.7807 97.6191 46.8797C97.2144 46.9788 96.8316 47.0283 96.4707 47.0283Z" fill="url(#paint10_linear_15_152)"/>
<path d="M101.519 46.9953C100.841 46.9953 100.501 46.6431 100.501 45.9387V39.6981C100.501 39.0047 100.835 38.658 101.502 38.658C102.169 38.658 102.503 39.0047 102.503 39.6981V40.0448C102.777 39.5825 103.143 39.2303 103.602 38.9882C104.073 38.7461 104.598 38.625 105.177 38.625C107.07 38.625 108.016 39.7311 108.016 41.9434V45.9387C108.016 46.6431 107.677 46.9953 106.999 46.9953C106.309 46.9953 105.965 46.6431 105.965 45.9387V42.0424C105.965 41.4151 105.845 40.9583 105.604 40.6722C105.374 40.386 105.013 40.2429 104.521 40.2429C103.92 40.2429 103.438 40.4355 103.077 40.8208C102.727 41.195 102.552 41.6958 102.552 42.3231V45.9387C102.552 46.6431 102.208 46.9953 101.519 46.9953Z" fill="url(#paint11_linear_15_152)"/>
<path d="M113.757 47.0283C112.926 47.0283 112.204 46.8577 111.592 46.5165C110.979 46.1753 110.503 45.691 110.164 45.0637C109.825 44.4253 109.656 43.6769 109.656 42.8184C109.656 41.9599 109.825 41.217 110.164 40.5896C110.503 39.9623 110.979 39.478 111.592 39.1368C112.204 38.7956 112.926 38.625 113.757 38.625C114.589 38.625 115.311 38.7956 115.923 39.1368C116.536 39.478 117.011 39.9623 117.35 40.5896C117.69 41.217 117.859 41.9599 117.859 42.8184C117.859 43.6769 117.69 44.4253 117.35 45.0637C117.011 45.691 116.536 46.1753 115.923 46.5165C115.311 46.8577 114.589 47.0283 113.757 47.0283ZM113.757 45.4599C114.37 45.4599 114.862 45.2398 115.234 44.7995C115.606 44.3483 115.792 43.6879 115.792 42.8184C115.792 41.9379 115.606 41.283 115.234 40.8538C114.862 40.4135 114.37 40.1934 113.757 40.1934C113.145 40.1934 112.653 40.4135 112.281 40.8538C111.909 41.283 111.723 41.9379 111.723 42.8184C111.723 43.6879 111.909 44.3483 112.281 44.7995C112.653 45.2398 113.145 45.4599 113.757 45.4599Z" fill="url(#paint12_linear_15_152)"/>
<path d="M122.292 47.0283C120.465 47.0283 119.552 45.9992 119.552 43.941V36.1321C119.552 35.4387 119.891 35.092 120.569 35.092C121.258 35.092 121.603 35.4387 121.603 36.1321V43.842C121.603 44.8325 122.013 45.3278 122.833 45.3278C122.921 45.3278 123.003 45.3278 123.079 45.3278C123.156 45.3168 123.232 45.3058 123.309 45.2948C123.462 45.2728 123.566 45.3168 123.621 45.4269C123.675 45.5259 123.703 45.7351 123.703 46.0542C123.703 46.3294 123.648 46.544 123.539 46.6981C123.429 46.8522 123.249 46.9458 122.997 46.9788C122.768 47.0118 122.532 47.0283 122.292 47.0283Z" fill="url(#paint13_linear_15_152)"/>
<path d="M128.37 47.0283C127.538 47.0283 126.816 46.8577 126.204 46.5165C125.591 46.1753 125.116 45.691 124.777 45.0637C124.437 44.4253 124.268 43.6769 124.268 42.8184C124.268 41.9599 124.437 41.217 124.777 40.5896C125.116 39.9623 125.591 39.478 126.204 39.1368C126.816 38.7956 127.538 38.625 128.37 38.625C129.201 38.625 129.923 38.7956 130.535 39.1368C131.148 39.478 131.624 39.9623 131.963 40.5896C132.302 41.217 132.471 41.9599 132.471 42.8184C132.471 43.6769 132.302 44.4253 131.963 45.0637C131.624 45.691 131.148 46.1753 130.535 46.5165C129.923 46.8577 129.201 47.0283 128.37 47.0283ZM128.37 45.4599C128.982 45.4599 129.474 45.2398 129.846 44.7995C130.218 44.3483 130.404 43.6879 130.404 42.8184C130.404 41.9379 130.218 41.283 129.846 40.8538C129.474 40.4135 128.982 40.1934 128.37 40.1934C127.757 40.1934 127.265 40.4135 126.893 40.8538C126.521 41.283 126.335 41.9379 126.335 42.8184C126.335 43.6879 126.521 44.3483 126.893 44.7995C127.265 45.2398 127.757 45.4599 128.37 45.4599Z" fill="url(#paint14_linear_15_152)"/>
<path d="M137.905 50C137.314 50 136.74 49.945 136.182 49.8349C135.635 49.7248 135.137 49.5542 134.689 49.3231C134.427 49.191 134.268 49.0204 134.213 48.8113C134.169 48.6132 134.191 48.4206 134.279 48.2335C134.366 48.0464 134.498 47.9088 134.673 47.8208C134.859 47.7437 135.055 47.7547 135.263 47.8538C135.745 48.0959 136.198 48.25 136.625 48.316C137.063 48.3931 137.434 48.4316 137.741 48.4316C139.206 48.4316 139.939 47.7217 139.939 46.3019V45.1958C139.709 45.647 139.354 46.0047 138.873 46.2689C138.402 46.533 137.877 46.6651 137.298 46.6651C136.576 46.6651 135.947 46.5 135.411 46.1698C134.875 45.8286 134.459 45.3553 134.164 44.75C133.869 44.1447 133.721 43.4403 133.721 42.6368C133.721 41.8333 133.869 41.1344 134.164 40.5401C134.459 39.9348 134.875 39.467 135.411 39.1368C135.947 38.7956 136.576 38.625 137.298 38.625C137.877 38.625 138.402 38.7516 138.873 39.0047C139.343 39.2579 139.688 39.6046 139.906 40.0448V39.6981C139.906 39.3569 139.994 39.0983 140.169 38.9222C140.355 38.7461 140.606 38.658 140.924 38.658C141.602 38.658 141.941 39.0047 141.941 39.6981V46.0542C141.941 47.364 141.596 48.3491 140.907 49.0094C140.218 49.6698 139.217 50 137.905 50ZM137.855 45.0967C138.49 45.0967 138.993 44.8766 139.365 44.4363C139.737 43.9961 139.923 43.3962 139.923 42.6368C139.923 41.8774 139.737 41.283 139.365 40.8538C138.993 40.4135 138.49 40.1934 137.855 40.1934C137.221 40.1934 136.718 40.4135 136.346 40.8538C135.974 41.283 135.788 41.8774 135.788 42.6368C135.788 43.3962 135.974 43.9961 136.346 44.4363C136.718 44.8766 137.221 45.0967 137.855 45.0967Z" fill="url(#paint15_linear_15_152)"/>
<path d="M146.1 49.967C145.728 49.967 145.471 49.8294 145.329 49.5542C145.187 49.2791 145.192 48.9654 145.345 48.6132L146.281 46.533L143.475 40.0283C143.322 39.6651 143.322 39.3459 143.475 39.0708C143.628 38.7956 143.929 38.658 144.377 38.658C144.629 38.658 144.831 38.7186 144.984 38.8396C145.138 38.9497 145.274 39.1643 145.395 39.4835L147.363 44.4363L149.381 39.467C149.502 39.1588 149.644 38.9497 149.808 38.8396C149.972 38.7186 150.191 38.658 150.464 38.658C150.814 38.658 151.06 38.7956 151.203 39.0708C151.345 39.3459 151.339 39.6596 151.186 40.0118L147.199 49.1745C147.057 49.4827 146.904 49.6918 146.74 49.8019C146.576 49.912 146.363 49.967 146.1 49.967Z" fill="url(#paint16_linear_15_152)"/>
<defs>
<linearGradient id="paint0_linear_15_152" x1="76" y1="0" x2="76" y2="50" gradientUnits="userSpaceOnUse">
<stop stop-color="#731FDE"/>
<stop offset="1" stop-color="#4800FF"/>
</linearGradient>
<linearGradient id="paint1_linear_15_152" x1="76" y1="0" x2="76" y2="50" gradientUnits="userSpaceOnUse">
<stop stop-color="#731FDE"/>
<stop offset="1" stop-color="#4800FF"/>
</linearGradient>
<linearGradient id="paint2_linear_15_152" x1="76" y1="0" x2="76" y2="50" gradientUnits="userSpaceOnUse">
<stop stop-color="#731FDE"/>
<stop offset="1" stop-color="#4800FF"/>
</linearGradient>
<linearGradient id="paint3_linear_15_152" x1="76" y1="0" x2="76" y2="50" gradientUnits="userSpaceOnUse">
<stop stop-color="#731FDE"/>
<stop offset="1" stop-color="#4800FF"/>
</linearGradient>
<linearGradient id="paint4_linear_15_152" x1="76" y1="0" x2="76" y2="50" gradientUnits="userSpaceOnUse">
<stop stop-color="#731FDE"/>
<stop offset="1" stop-color="#4800FF"/>
</linearGradient>
<linearGradient id="paint5_linear_15_152" x1="76" y1="0" x2="76" y2="50" gradientUnits="userSpaceOnUse">
<stop stop-color="#731FDE"/>
<stop offset="1" stop-color="#4800FF"/>
</linearGradient>
<linearGradient id="paint6_linear_15_152" x1="76" y1="0" x2="76" y2="50" gradientUnits="userSpaceOnUse">
<stop stop-color="#731FDE"/>
<stop offset="1" stop-color="#4800FF"/>
</linearGradient>
<linearGradient id="paint7_linear_15_152" x1="76" y1="0" x2="76" y2="50" gradientUnits="userSpaceOnUse">
<stop stop-color="#731FDE"/>
<stop offset="1" stop-color="#4800FF"/>
</linearGradient>
<linearGradient id="paint8_linear_15_152" x1="76" y1="0" x2="76" y2="50" gradientUnits="userSpaceOnUse">
<stop stop-color="#4800FF"/>
<stop offset="1" stop-color="#731FDE"/>
</linearGradient>
<linearGradient id="paint9_linear_15_152" x1="76" y1="0" x2="76" y2="50" gradientUnits="userSpaceOnUse">
<stop stop-color="#4800FF"/>
<stop offset="1" stop-color="#731FDE"/>
</linearGradient>
<linearGradient id="paint10_linear_15_152" x1="76" y1="0" x2="76" y2="50" gradientUnits="userSpaceOnUse">
<stop stop-color="#4800FF"/>
<stop offset="1" stop-color="#731FDE"/>
</linearGradient>
<linearGradient id="paint11_linear_15_152" x1="76" y1="0" x2="76" y2="50" gradientUnits="userSpaceOnUse">
<stop stop-color="#4800FF"/>
<stop offset="1" stop-color="#731FDE"/>
</linearGradient>
<linearGradient id="paint12_linear_15_152" x1="76" y1="0" x2="76" y2="50" gradientUnits="userSpaceOnUse">
<stop stop-color="#4800FF"/>
<stop offset="1" stop-color="#731FDE"/>
</linearGradient>
<linearGradient id="paint13_linear_15_152" x1="76" y1="0" x2="76" y2="50" gradientUnits="userSpaceOnUse">
<stop stop-color="#4800FF"/>
<stop offset="1" stop-color="#731FDE"/>
</linearGradient>
<linearGradient id="paint14_linear_15_152" x1="76" y1="0" x2="76" y2="50" gradientUnits="userSpaceOnUse">
<stop stop-color="#4800FF"/>
<stop offset="1" stop-color="#731FDE"/>
</linearGradient>
<linearGradient id="paint15_linear_15_152" x1="76" y1="0" x2="76" y2="50" gradientUnits="userSpaceOnUse">
<stop stop-color="#4800FF"/>
<stop offset="1" stop-color="#731FDE"/>
</linearGradient>
<linearGradient id="paint16_linear_15_152" x1="76" y1="0" x2="76" y2="50" gradientUnits="userSpaceOnUse">
<stop stop-color="#4800FF"/>
<stop offset="1" stop-color="#731FDE"/>
</linearGradient>
</defs>
</svg>
